<?xml version="1.0" encoding="UTF-8" standalone="no"?>
<!-- Created with Inkscape (http://www.inkscape.org/) -->

<svg
   width="144.62328mm"
   height="21.136177mm"
   viewBox="0 0 144.62328 21.136177"
   version="1.1"
   id="svg1"
   inkscape:version="1.3.2 (091e20e, 2023-11-25, custom)"
   sodipodi:docname="ScientistVsEngineer.svg"
   xmlns:inkscape="http://www.inkscape.org/namespaces/inkscape"
   xmlns:sodipodi="http://sodipodi.sourceforge.net/DTD/sodipodi-0.dtd"
   xmlns:xlink="http://www.w3.org/1999/xlink"
   xmlns="http://www.w3.org/2000/svg"
   xmlns:svg="http://www.w3.org/2000/svg">
  <sodipodi:namedview
     id="namedview1"
     pagecolor="#ffffff"
     bordercolor="#999999"
     borderopacity="1"
     inkscape:showpageshadow="2"
     inkscape:pageopacity="0"
     inkscape:pagecheckerboard="0"
     inkscape:deskcolor="#d1d1d1"
     inkscape:document-units="mm"
     showgrid="true"
     inkscape:zoom="4"
     inkscape:cx="435.125"
     inkscape:cy="508.125"
     inkscape:window-width="1920"
     inkscape:window-height="991"
     inkscape:window-x="2391"
     inkscape:window-y="-9"
     inkscape:window-maximized="1"
     inkscape:current-layer="layer1">
    <inkscape:grid
       id="grid1"
       units="px"
       originx="-50.522398"
       originy="-123.36364"
       spacingx="0.26458333"
       spacingy="0.26458334"
       empcolor="#0099e5"
       empopacity="0.30196078"
       color="#0099e5"
       opacity="0.30196078"
       empspacing="5"
       dotted="true"
       gridanglex="30"
       gridanglez="30"
       visible="true" />
  </sodipodi:namedview>
  <defs
     id="defs1">
    <linearGradient
       id="linearGradient184"
       inkscape:collect="always">
      <stop
         style="stop-color:#e3e3e3;stop-opacity:0.45882353;"
         offset="0"
         id="stop183" />
      <stop
         style="stop-color:#ffffff;stop-opacity:0.68627453;"
         offset="1"
         id="stop184" />
    </linearGradient>
    <linearGradient
       id="linearGradient181"
       inkscape:collect="always">
      <stop
         style="stop-color:#e3e3e3;stop-opacity:0.45882353;"
         offset="0"
         id="stop181" />
      <stop
         style="stop-color:#ffffff;stop-opacity:0.68627453;"
         offset="1"
         id="stop182" />
    </linearGradient>
    <linearGradient
       inkscape:collect="always"
       xlink:href="#linearGradient181"
       id="linearGradient182"
       x1="18.727411"
       y1="164.1703"
       x2="62.562614"
       y2="164.1703"
       gradientUnits="userSpaceOnUse"
       gradientTransform="matrix(1.3123833,0,0,1.2989395,27.431288,-79.406213)" />
    <linearGradient
       inkscape:collect="always"
       xlink:href="#linearGradient184"
       id="linearGradient183"
       gradientUnits="userSpaceOnUse"
       x1="18.727411"
       y1="164.1703"
       x2="62.562614"
       y2="164.1703"
       gradientTransform="matrix(1.3123833,0,0,1.2989395,-218.03675,-79.336823)" />
  </defs>
  <g
     inkscape:label="Layer 1"
     inkscape:groupmode="layer"
     id="layer1"
     transform="translate(-50.522397,-123.36364)">
    <rect
       style="fill:url(#linearGradient182);fill-opacity:1;stroke:none;stroke-width:0.195847;stroke-linecap:round;stroke-dasharray:none;stroke-opacity:1"
       id="rect180"
       width="57.33173"
       height="16.282129"
       x="52.107258"
       y="125.70002"
       ry="2.1263974"
       inkscape:export-filename="problem_solving_process.svg"
       inkscape:export-xdpi="161.34453"
       inkscape:export-ydpi="161.34453" />
    <rect
       style="fill:url(#linearGradient183);fill-opacity:1;stroke:none;stroke-width:0.195847;stroke-linecap:round;stroke-dasharray:none;stroke-opacity:1"
       id="rect180-3"
       width="57.33173"
       height="16.282129"
       x="-193.36069"
       y="125.7694"
       ry="2.1263974"
       transform="scale(-1,1)" />
    <text
       xml:space="preserve"
       style="font-style:normal;font-variant:normal;font-weight:normal;font-stretch:normal;font-size:3.68481px;font-family:'Hack Nerd Font Mono';-inkscape-font-specification:'Hack Nerd Font Mono';fill:#000000;fill-opacity:1;stroke:#000000;stroke-width:0.195847;stroke-linecap:round;stroke-dasharray:none;stroke-opacity:1"
       x="60.360317"
       y="136.37762"
       id="text155-1"
       transform="scale(1.0051616,0.99486491)"><tspan
         sodipodi:role="line"
         id="tspan155-2"
         style="font-size:3.68481px;stroke-width:0.195847"
         x="60.360317"
         y="136.37762">Define</tspan></text>
    <text
       xml:space="preserve"
       style="font-style:normal;font-variant:normal;font-weight:normal;font-stretch:normal;font-size:3.68481px;font-family:'Hack Nerd Font Mono';-inkscape-font-specification:'Hack Nerd Font Mono';fill:#000000;fill-opacity:1;stroke:#000000;stroke-width:0.195847;stroke-linecap:round;stroke-dasharray:none;stroke-opacity:1"
       x="87.817398"
       y="136.37762"
       id="text155-1-3"
       transform="scale(1.0051616,0.99486491)"><tspan
         sodipodi:role="line"
         id="tspan155-2-7"
         style="font-size:3.68481px;stroke-width:0.195847"
         x="87.817398"
         y="136.37762">Analyze</tspan></text>
    <text
       xml:space="preserve"
       style="font-style:normal;font-variant:normal;font-weight:normal;font-stretch:normal;font-size:3.68481px;font-family:'Hack Nerd Font Mono';-inkscape-font-specification:'Hack Nerd Font Mono';fill:#000000;fill-opacity:1;stroke:#000000;stroke-width:0.195847;stroke-linecap:round;stroke-dasharray:none;stroke-opacity:1"
       x="114.58356"
       y="136.33714"
       id="text155-1-3-0"
       transform="scale(1.0051616,0.99486491)"><tspan
         sodipodi:role="line"
         id="tspan155-2-7-7"
         style="font-size:3.68481px;stroke-width:0.195847"
         x="114.58356"
         y="136.33714">Generate</tspan></text>
    <text
       xml:space="preserve"
       style="font-style:normal;font-variant:normal;font-weight:normal;font-stretch:normal;font-size:3.68481px;font-family:'Hack Nerd Font Mono';-inkscape-font-specification:'Hack Nerd Font Mono';fill:#000000;fill-opacity:1;stroke:#000000;stroke-width:0.195847;stroke-linecap:round;stroke-dasharray:none;stroke-opacity:1"
       x="142.04065"
       y="136.37762"
       id="text155-1-3-0-5"
       transform="scale(1.0051616,0.99486491)"><tspan
         sodipodi:role="line"
         id="tspan155-2-7-7-4"
         style="font-size:3.68481px;stroke-width:0.195847"
         x="142.04065"
         y="136.37762">Evaluate</tspan></text>
    <text
       xml:space="preserve"
       style="font-style:normal;font-variant:normal;font-weight:normal;font-stretch:normal;font-size:3.68481px;font-family:'Hack Nerd Font Mono';-inkscape-font-specification:'Hack Nerd Font Mono';fill:#000000;fill-opacity:1;stroke:#000000;stroke-width:0.195847;stroke-linecap:round;stroke-dasharray:none;stroke-opacity:1"
       x="170.18864"
       y="136.37762"
       id="text155-1-3-0-5-8"
       transform="scale(1.0051616,0.99486491)"><tspan
         sodipodi:role="line"
         id="tspan155-2-7-7-4-5"
         style="font-size:3.68481px;stroke-width:0.195847"
         x="170.18864"
         y="136.37762">Verify</tspan></text>
    <path
       id="rect179"
       style="fill:none;stroke:#000000;stroke-width:0.236322;stroke-linecap:round;stroke-dasharray:none"
       d="m 56.602396,129.43028 h 22.668213 c 0.778172,0 2.736169,3.20916 3.118083,3.80431 0.497977,0.77604 0.516563,1.56872 0.03631,2.28482 -0.39013,0.58171 -2.376232,3.53812 -3.154403,3.53812 H 56.602396 c -0.778176,0 -1.40465,-0.57381 -1.40465,-1.28659 v -7.05407 c 0,-0.71277 0.626474,-1.28659 1.40465,-1.28659 z"
       sodipodi:nodetypes="sssssssss" />
    <path
       id="rect179-2"
       style="fill:none;stroke:#000000;stroke-width:0.236322;stroke-linecap:round;stroke-dasharray:none"
       d="m 83.735949,129.43028 h 22.668211 c 0.77817,0 2.73617,3.20916 3.11808,3.80431 0.49798,0.77604 0.51656,1.56872 0.0363,2.28482 -0.39013,0.58171 -2.37623,3.53812 -3.15441,3.53812 H 83.735949 c -0.77818,0 -1.404655,-0.9302 -1.404655,-1.28659 0,-0.17818 1.10392,-1.58768 1.652549,-2.47752 0.428778,-0.69546 0.302616,-1.54993 -0.03427,-2.0206 -0.626884,-0.87587 -1.618293,-2.37776 -1.618293,-2.55595 0,-0.35639 0.626476,-1.28659 1.404655,-1.28659 z"
       sodipodi:nodetypes="sssssssssss" />
    <path
       id="rect179-2-1"
       style="fill:none;stroke:#000000;stroke-width:0.236322;stroke-linecap:round;stroke-dasharray:none"
       d="m 110.8695,129.43028 h 22.6682 c 0.77818,0 2.73618,3.20916 3.1181,3.80431 0.49797,0.77604 0.51655,1.56872 0.0363,2.28482 -0.39013,0.58171 -2.37624,3.53812 -3.15441,3.53812 H 110.8695 c -0.77818,0 -1.40465,-0.9302 -1.40465,-1.28659 0,-0.17818 1.10392,-1.58768 1.65254,-2.47752 0.42878,-0.69546 0.30262,-1.54993 -0.0343,-2.0206 -0.62689,-0.87587 -1.61829,-2.37776 -1.61829,-2.55595 0,-0.35639 0.62647,-1.28659 1.40465,-1.28659 z"
       sodipodi:nodetypes="sssssssssss" />
    <path
       id="rect179-2-5"
       style="fill:none;stroke:#000000;stroke-width:0.236322;stroke-linecap:round;stroke-dasharray:none"
       d="m 138.00305,129.43028 h 22.66821 c 0.77819,0 2.73618,3.20916 3.11809,3.80431 0.49797,0.77604 0.51656,1.56872 0.0363,2.28482 -0.39012,0.58171 -2.37623,3.53812 -3.15439,3.53812 H 138.003 c -0.77818,0 -1.40466,-0.9302 -1.40466,-1.28659 0,-0.17818 1.10393,-1.58768 1.65256,-2.47752 0.42878,-0.69546 0.3026,-1.54993 -0.0343,-2.0206 -0.62688,-0.87587 -1.6183,-2.37776 -1.6183,-2.55595 0,-0.35639 0.62648,-1.28659 1.40466,-1.28659 z"
       sodipodi:nodetypes="sssssssssss" />
    <path
       id="rect179-2-59"
       style="fill:none;stroke:#000000;stroke-width:0.236322;stroke-linecap:round;stroke-dasharray:none"
       d="m 165.13667,129.43028 h 22.6682 c 0.77818,0 2.73618,3.20916 3.11808,3.80431 0.49798,0.77604 0.51657,1.56872 0.0364,2.28482 -0.39013,0.58171 -2.37624,3.53812 -3.1544,3.53812 h -22.66821 c -0.77818,0 -1.40466,-0.9302 -1.40466,-1.28659 0,-0.17818 1.10392,-1.58768 1.65256,-2.47752 0.42878,-0.69546 0.30262,-1.54993 -0.0343,-2.0206 -0.62688,-0.87587 -1.6183,-2.37776 -1.6183,-2.55595 0,-0.35639 0.62648,-1.28659 1.40466,-1.28659 z"
       sodipodi:nodetypes="sssssssssss" />
    <rect
       style="fill:none;fill-opacity:1;stroke:none;stroke-width:0.236322;stroke-linecap:round;stroke-dasharray:0.118161, 0.118161;stroke-dashoffset:0;stroke-opacity:1"
       id="rect183"
       width="144.62328"
       height="21.136179"
       x="50.522396"
       y="123.36364"
       ry="2.1263974" />
  </g>
</svg>
